<?xml version="1.0" encoding="UTF-8" standalone="no"?>
<!-- Created with Inkscape (http://www.inkscape.org/) -->

<svg
   width="53.622238mm"
   height="54.010281mm"
   viewBox="0 0 53.622239 54.010282"
   version="1.1"
   id="svg1"
   xml:space="preserve"
   xmlns="http://www.w3.org/2000/svg"
   xmlns:svg="http://www.w3.org/2000/svg"><defs
     id="defs1" /><path
     d="M 2.0111395e-5,9.0311129 V 18.026947 H 3.5278001 h 3.52778 v 1.763889 1.763889 H 3.5278001 2.0111395e-5 v 8.995834 8.995833 H 5.2916901 10.58336 v -3.527778 -3.527778 h 5.468045 5.46806 v 1.763889 1.763889 h -3.70417 -3.70417 v 5.291667 5.291667 h 3.73945 3.70417 l -0.10584,1.834445 -0.10583,1.869722 H 16.051405 10.75975 L 10.65391,46.672504 10.54808,43.07417 H 5.2916901 2.0111395e-5 v 5.468056 5.468056 H 1.7639101 h 1.76389 v -3.704167 -3.704167 h 1.76389 1.76389 v 3.704167 3.704167 h 8.9958249 8.99584 V 48.542226 43.07417 h -3.52778 -3.52778 v -1.763889 -1.763889 h 3.52778 3.52778 v -5.291667 -5.291667 h -8.99584 -8.9958249 v 3.527778 3.527778 h -1.76389 -1.76389 v -5.468055 -5.468056 h 3.52778 3.5277799 V 19.790836 14.499169 H 7.0555801 3.5278001 V 9.0311129 3.5630569 h 1.76389 1.76389 v 3.704167 3.7394441 l 5.3974949,-0.105833 5.36222,-0.105833 0.10583,-3.6336121 0.10584,-3.598333 h 1.72861 1.76389 v 5.468056 5.4680561 h -3.70417 -3.70417 v 5.291667 5.291667 h 12.70001 12.7 v -5.291667 -5.291667 h -3.70417 -3.70417 V 9.0311129 3.5630569 h 1.76389 1.72861 l 0.10584,3.598333 0.10583,3.6336121 5.3975,0.105833 5.36222,0.105833 V 7.2672239 3.5630569 h 1.76389 1.76389 v 5.468056 5.4680561 h -3.52778 -3.52778 v 5.291667 5.291667 h 3.52778 3.52778 v 5.468056 5.468055 h -1.76389 -1.76389 V 32.27917 28.504447 l -2.36361,0.211667 c -1.34056,0.141111 -5.36222,0.246944 -8.99583,0.246944 h -6.63223 v 5.291667 5.291667 h 3.52778 3.52778 v 1.763889 1.763889 h -3.52778 -3.52778 v 5.468056 5.468056 h 8.99584 8.99583 v -3.704167 -3.704167 h 1.76389 1.76389 v 3.704167 3.704167 h 1.76389 1.76389 V 48.542226 43.07417 h -5.29167 -5.25639 l -0.10583,3.598334 -0.10584,3.633611 h -5.29166 -5.29167 l -0.10583,-1.869722 -0.10584,-1.834445 h 3.70417 3.73945 v -5.291667 -5.291667 h -3.70417 -3.70417 v -1.763889 -1.763889 h 5.46806 5.46805 v 3.527778 3.527778 h 5.29167 5.29167 v -8.995833 -8.995834 h -3.52778 -3.52778 v -1.763889 -1.763889 h 3.52778 3.52778 V 9.0311129 0.03527886 h -5.29167 -5.25639 l -0.10583,3.59833304 -0.10584,3.633612 -1.65805,0.105833 -1.65806,0.105833 -0.10583,-3.633611 -0.10583,-3.63361104 -5.36223,-0.105834 L 28.575015,8.6274571e-7 V 9.0311129 18.026947 h 3.52778 3.52778 v 1.763889 1.763889 h -8.81944 -8.81945 v -1.763889 -1.763889 h 3.52778 3.52778 V 9.0311129 8.6274571e-7 L 19.685015,0.10583386 l -5.3975,0.105834 -0.10583,3.63361104 -0.10583,3.633611 -1.65806,-0.105833 L 10.75975,7.2672239 10.65391,3.6336119 10.54808,0.03527886 H 5.2916901 2.0111395e-5 Z"
     id="path1"
     style="fill:#000000;stroke:none;stroke-width:0.0352778" /></svg>
